<?xml version="1.0" encoding="utf-8"?>
<!-- Generator: Adobe Illustrator 19.0.0, SVG Export Plug-In . SVG Version: 6.00 Build 0)  -->
<!DOCTYPE svg PUBLIC "-//W3C//DTD SVG 1.1//EN" "http://www.w3.org/Graphics/SVG/1.1/DTD/svg11.dtd">
<svg version="1.1" id="Objects" xmlns="http://www.w3.org/2000/svg" xmlns:xlink="http://www.w3.org/1999/xlink" x="0px" y="0px"
	 viewBox="0 0 815.6 800" enable-background="new 0 0 815.6 800" xml:space="preserve">
<g id="tZEUKX.tif">
	<g id="XMLID_141_">
		<path id="XMLID_187_" fill="#63A842" d="M21.7,399.2C22.8,184,195.6,14.1,413.3,16.3c212,2.1,377.2,173.1,378.7,384.1
			c1.6,217.8-173.7,386.1-386.8,386.1C190.1,786.5,22.5,613.1,21.7,399.2z M407.5,763.2c193.2,2.8,358.1-159.9,361.3-356.2
			C772.2,199.2,602,39.7,406.5,39.5C203,39.2,48.2,205.7,45.2,396.4C41.9,604.3,212.8,762.9,407.5,763.2z"/>
		<path id="XMLID_174_" fill="#63A842" d="M394.6,511.2c0-34.5-0.1-68.9,0.1-103.4c0-5-1.4-6.9-6.3-8.4c-31.7-9.3-62.6-20.7-88-42.7
			c-25.8-22.2-42.6-49.7-42.8-84.6c-0.2-36.9,16.3-65.7,46.2-86.9c25-17.7,53.4-25.9,83.8-27.7c5.6-0.3,7.9-1.7,7.2-7.5
			c-0.5-4.3-0.3-8.7,0-13.1c0.5-6.7,5.7-11.6,12-11.7c6.4-0.1,11.6,4.6,12.5,11.3c0.1,0.5,0,1,0.1,1.5c0.5,6.4-2.7,14.6,1.4,18.5
			c3.6,3.5,11.7,2.2,17.8,3.2c34,5.6,65.5,17.3,92.8,38.9c5.8,4.6,11.2,9.9,16.3,15.3c5.5,5.9,5.4,12.9,0.2,17.9
			c-4.9,4.8-12.7,4.8-17.9-0.9c-27.5-29.6-62.6-42.9-101.5-48.5c-6.7-1-9.3,0.1-9.2,7.8c0.3,61.7,0.3,123.5,0,185.2
			c0,5.5,1.7,7.5,6.8,8.7c25,6,49.8,12.3,73.8,21.7c54.6,21.5,67.5,68.8,63.8,109.7c-1.2,13.6-4.6,26.8-8.9,39.7
			c-12.2,36.5-39.7,57.6-73.1,72.7c-17.7,8-35.9,13.9-55.3,15.7c-5.5,0.5-7.6,2.5-7,8.1c0.5,4.3,0.3,8.7,0,13.1
			c-0.4,7.2-5.6,12.3-12.2,12.4c-6.7,0-11.8-5.1-12.4-12.3c0-0.5,0-1,0-1.5c-0.1-5.9,1.7-13-1-17.3c-2.9-4.6-10.9-2.6-16.6-3.6
			c-43.5-8-79.3-30.1-111.4-59.3c-4.2-3.8-8.2-7.8-12.2-11.8c-5.9-6.1-6.2-13.3-1.1-18.5c5.2-5.2,12.4-5,18.4,1
			c15.9,15.9,32.7,30.6,51.8,42.4c20.1,12.4,41.6,21.2,65.2,24.3c5.4,0.7,6.9-0.5,6.9-6.1C394.5,580.1,394.6,545.7,394.6,511.2
			C394.6,511.2,394.6,511.2,394.6,511.2z M419.3,514.4c0,32.6,0.2,65.3-0.2,97.9c-0.1,7.4,1.7,9.1,9,7.7c24.6-4.7,46.7-14.9,67.9-28
			c20.8-12.9,33.5-31.4,40.4-54.3c16.2-53.8-5-95.1-58.1-113.4c-16.8-5.8-34-9.7-51.1-14.4c-6.1-1.7-8.3-1.4-8.2,5.9
			C419.5,448.6,419.3,481.5,419.3,514.4z M394.6,279.4c0-30.1-0.2-60.1,0.2-90.2c0.1-6.3-1.8-7.8-7.8-7.2
			c-21.4,2.2-42.1,6.8-61.1,17.1c-17,9.1-30.4,21.9-37.7,40.1c-14,34.8-2.5,74.5,28.8,100.1c20.7,16.9,45.2,26,70.2,34.2
			c6,2,7.8,1.5,7.7-5.4C394.4,338.5,394.6,308.9,394.6,279.4z"/>
	</g>
</g>
</svg>
