<?xml version="1.0" encoding="utf-8"?>
<!-- Generator: Adobe Illustrator 19.0.0, SVG Export Plug-In . SVG Version: 6.00 Build 0)  -->
<!DOCTYPE svg PUBLIC "-//W3C//DTD SVG 1.1//EN" "http://www.w3.org/Graphics/SVG/1.1/DTD/svg11.dtd">
<svg version="1.1" id="Objects" xmlns="http://www.w3.org/2000/svg" xmlns:xlink="http://www.w3.org/1999/xlink" x="0px" y="0px"
	 viewBox="0 0 928.1 829.5" enable-background="new 0 0 928.1 829.5" xml:space="preserve">
<g id="XMLID_27_">
	<path id="XMLID_87_" fill="#66AF45" d="M415.7,74.5l0.3,0.3c1.9,1.6,3.8,3.3,5.7,4.9c5,4.3,10.1,8.7,15.3,13c2.3,1.9,2.7,3,1.9,5.7
		c-1.9,6.5-3.4,13.2-4.8,19.7c-0.6,2.7-1.2,5.4-1.8,8l-0.1,0.9c-0.3,2.1-0.8,5.9,2.5,8.3c4.2,3.1,8.2,0.6,10.4-0.7l0.7-0.4
		c3-1.7,5.9-3.8,8.7-5.9c6.1-4.4,11.8-8.5,17.4-8.9c5.3-0.4,10.7,3.7,16.4,8c3.2,2.4,6.6,5,10.1,6.9c0.3,0.2,0.6,0.4,0.9,0.5
		c1.2,0.7,3.3,2,5.7,2c1.4,0,3-0.5,4.5-1.8c3.6-3.1,2.5-7.6,1.9-10c-0.1-0.3-0.1-0.6-0.2-0.9c-0.4-1.6-0.7-3.2-1.1-4.9
		c-1.4-6.7-2.9-13.6-5-20.2c-1-3.3-0.5-4.8,2.4-7.2c4.9-3.9,9.7-8.1,14.3-12.1c2.2-1.9,4.4-3.9,6.7-5.8c1.4-1.2,5.5-4.7,3.1-10.1
		c-1.8-4-5.7-4.2-7.5-4.4l-0.5,0c-2.5-0.2-4.9-0.4-7.4-0.6c-5.7-0.5-11.5-1.1-17.4-1.1c-5.4-0.1-7.7-1.5-9.2-6c-2-6-4.6-11.8-7-17.4
		c-0.9-2.1-1.9-4.3-2.8-6.4l-0.2-0.5c-0.8-2-2.5-6.2-7.6-6.2c0,0,0,0,0,0c-5,0-6.7,4.1-7.5,6l-0.3,0.6c-0.6,1.3-1.2,2.6-1.8,3.9
		c-1.6,3.4-3.2,6.8-4.2,10.6c-3.3,12.8-9.4,17.3-21.1,15.8c-3.9-0.5-7.7,0.1-11.4,0.7c-1.6,0.2-3.1,0.5-4.5,0.6c-0.3,0-0.7,0-1,0
		c-1.9,0-6,0.1-7.9,4.4C409.8,69.5,413.8,72.9,415.7,74.5z M420.2,67.3c0.5,0,1.1,0,1.6-0.1c1.7-0.2,3.3-0.4,4.9-0.7
		c3.3-0.5,6.4-1,9.2-0.6c15.5,2,25.1-5,29.4-21.4c0.8-3.1,2.2-6.1,3.7-9.2c0.6-1.4,1.3-2.7,1.9-4.1l0.3-0.8c0.2-0.4,0.4-0.9,0.5-1.2
		c0.2,0.4,0.4,0.9,0.6,1.4l0.2,0.5c0.9,2.2,1.8,4.3,2.8,6.5c2.4,5.5,4.9,11.2,6.8,16.9c3.3,9.7,10.5,11,16.3,11.1
		c5.5,0.1,11.2,0.6,16.7,1.1c2.5,0.2,5,0.5,7.5,0.7l0.6,0c0.3,0,0.7,0,1,0.1c-0.2,0.2-0.5,0.5-1,1c-2.2,1.9-4.5,3.9-6.7,5.8
		c-4.6,4-9.3,8.1-14.1,11.9c-3.6,2.9-7.5,7.3-4.9,15.4c2,6.3,3.4,13.1,4.8,19.5c0.4,1.6,0.7,3.3,1.1,4.9c0.1,0.3,0.2,0.7,0.3,1.1
		c0.1,0.6,0.4,1.6,0.5,2.2c-0.4-0.2-1-0.5-1.3-0.7c-0.4-0.2-0.8-0.5-1.2-0.7c-3-1.6-6-3.8-9.1-6.2c-6.2-4.7-12.7-9.6-20.2-9.6
		c-0.4,0-0.8,0-1.2,0c-7.7,0.5-14.6,5.5-21.3,10.3c-2.8,2-5.4,3.9-8.1,5.5c-0.3,0.2-0.5,0.3-0.8,0.5c-0.4,0.3-1,0.6-1.5,0.9
		c0-0.3,0.1-0.7,0.1-1l0.1-0.4c0.6-2.7,1.2-5.3,1.8-8c1.4-6.4,2.8-12.9,4.7-19.2c1.7-5.6,0.3-9.9-4.3-13.7
		c-5.1-4.2-10.2-8.6-15.1-12.9c-1.9-1.6-3.8-3.3-5.7-4.9l-0.4-0.3c-0.4-0.4-1.2-1-1.5-1.4C419.4,67.3,419.8,67.3,420.2,67.3z"/>
	<path id="XMLID_90_" fill="#66AF45" d="M148.7,251.6c0.8-0.4,1.7-0.7,2.5-1.2c48.2-23.7,87.8-56.3,110.8-106.3c1-2.1,3.5-4.5,1-6.7
		c-2.3-2-4.7,0.4-7,1.2c-46.7,16.5-79.2,48.7-101.7,92c-2.8,5.3-5.4,10.7-8,16C145,249.2,144.5,251.6,148.7,251.6z"/>
	<path id="XMLID_91_" fill="#66AF45" d="M435.9,716.7c1.8,0.6,3.7,0.9,5.8-0.6c-0.3-1-0.4-2.3-1-3.2c-29.8-45.1-67.3-80.6-120-97.2
		c-2.5-0.8-5.6-3.6-7.8-0.8c-1.9,2.6,1.3,5.1,2.5,7.5C340.6,672.8,383.9,700.2,435.9,716.7z"/>
	<path id="XMLID_92_" fill="#66AF45" d="M678.2,138.9c-1.8-0.6-3.5-1.3-5.9-2.1c-4.8,0.9-2.7,3.8-1.4,6.6
		c23.1,50.3,62.8,83.2,111.3,107.1c1.7,0.8,3.5,2,5.2,0.4c1.7-1.7,0.2-3.5-0.6-5.1c-4.5-8.6-8.9-17.4-13.7-25.8
		C751.2,181.6,719.9,154.1,678.2,138.9z"/>
	<path id="XMLID_93_" fill="#66AF45" d="M433.7,732.6c-0.8-3.1-4.2-2.3-6.4-2.6c-52.3-7.2-102.4-1.8-148.6,25.7
		c-2.3,1.4-5.4,1.9-6.6,6.5c15.3,4.4,30.5,6.9,45.9,7.6c41.3,2,77.6-13.1,112.3-33.4C431.9,735.6,434.3,734.8,433.7,732.6z"/>
	<path id="XMLID_94_" fill="#66AF45" d="M613.5,615.4c-52.5,16.3-90,51.5-119.9,96c-1,1.5-2.8,3.2-1.2,5c1.3,1.6,3.6,0.9,5.3,0.2
		c8.3-3,16.5-6,24.7-9.3c42.3-16.8,75-44.3,95.8-85.3c1-2,2.1-3.9,3.2-6C619.1,611.8,616,614.6,613.5,615.4z"/>
	<path id="XMLID_95_" fill="#66AF45" d="M140.6,517.5c1.3-1.8-0.2-3.6-1.3-5.1c-4.6-6.4-9.2-12.8-13.8-19.2
		c-26-36.5-60-62.5-102.4-77.4c-2.1-0.7-4.1-1.5-6.5-2.3c-5,0-3.2,3-1.9,5.5c6.3,12.4,13.5,24.2,22,35.2
		c25.4,32.8,60.7,50.3,98.6,63.7C137.1,518.5,139.3,519.3,140.6,517.5z"/>
	<path id="XMLID_96_" fill="#66AF45" d="M815.9,440.1c-0.4,1.7-1.5,3.9,1.1,4.8c2.5,0.9,4.1-1.3,5.7-2.6
		c17.4-14.1,33.5-29.5,47-47.5c18.8-25.1,28-53.9,32.1-84.7c-0.4-1.9,1.4-4.7-1.4-5.7c-2.4-0.8-3.9,1.6-5.5,2.9
		C851.1,341.3,828.4,387.7,815.9,440.1z"/>
	<path id="XMLID_97_" fill="#66AF45" d="M504.6,730.3c-1.7,0.2-4.3-0.2-4.8,1.9c-0.8,3.4,2.6,4,4.6,5.1c28,16.2,57.2,29.2,89.9,32.2
		c22.7,2.1,44.9-0.9,68.7-7.9c-3.1-2.4-4.2-3.5-5.5-4.2C610.1,728.4,558.5,722.4,504.6,730.3z"/>
	<path id="XMLID_98_" fill="#66AF45" d="M31.5,310.1c0.6,3.4,1.4,7.4,2,11.5c7.8,52.2,38.1,89.9,78,121.4c1.4,1.1,2.9,3,4.9,1.9
		c2.9-1.5,1-3.8,0.4-5.8c-4.1-13.5-7.7-27.2-12.4-40.5c-12.8-37-36-66.7-66-91.3c-1.6-1.3-3.2-3.6-5.6-2.7
		C30.6,305.4,31.9,307.8,31.5,310.1z"/>
	<path id="XMLID_99_" fill="#66AF45" d="M733.8,87.1c5.8,35.3,23,65.6,42,95c1,1.5,2,3.6,4.3,2.9c2.2-0.7,2.1-2.9,2.1-4.8
		c0.1-7.6,0-15.1,0-22.7c1.7-46.6-12.2-88-42.7-123.5c-1.7-2-3-5.9-6.2-5c-3.7,1.1-2.5,5.3-2.7,8.2C729.9,54,731.1,70.6,733.8,87.1z
		"/>
	<path id="XMLID_100_" fill="#66AF45" d="M196.2,155.1c3.6,2.8,9.1-4.8,13.6-7.9c39.9-28.2,69.8-64.1,84.7-111.3
		c1-3.2,3.2-6.2,1.3-9.9c-3.5-0.4-5.8,2.1-8.5,3.5c-45.3,23.7-72.3,62.2-88.1,109.6C197.4,144.4,191.5,151.4,196.2,155.1z"/>
	<path id="XMLID_101_" fill="#66AF45" d="M825.6,627.6c-12.4-2-25-3.2-38.1-2.8c-40.9-1.7-77.6,13.7-113.5,31.7
		c-1.7,0.8-3.8,1.6-3.5,3.8c0.4,2.3,2.8,2.2,4.6,2.4c12.2,1.6,24.3,3.5,36.5,4.5c42.4,3.3,80.9-8,115.7-32.3c1.7-1.2,4.5-2,3.9-4.7
		C830.5,627.6,827.6,627.9,825.6,627.6z"/>
	<path id="XMLID_102_" fill="#66AF45" d="M257.7,662.8c1.9-0.4,5,0.2,5.1-2.9c0.1-2.2-2.2-2.9-3.9-3.7
		c-35.5-17.7-71.6-33.1-111.7-31.4c-13.4-0.6-25.9,1-38.4,2.7c-2.3,0.3-5.7-0.1-6.4,2.7c-0.8,3,2.7,3.9,4.6,5.2
		C152.9,668,203.9,673.2,257.7,662.8z"/>
	<path id="XMLID_103_" fill="#66AF45" d="M732.6,154c1.5,1,3.1,2.9,4.9,1.7c2.3-1.6,0.9-3.9,0.3-6c-8.6-26.8-19.5-52.4-36.9-74.9
		c-16.9-21.7-38.5-37.3-62.8-49.6c-2.3,3.7-0.7,6.3,0.1,8.9C654.2,86.3,688.6,124,732.6,154z"/>
	<path id="XMLID_104_" fill="#66AF45" d="M857.7,524.3c-1.1,0.2-2.1,0.3-3,0.4c-54.2,11.3-95.3,42.5-129.6,84.4
		c-0.9,1.2-2.4,2.5-1.4,4.1c1.5,2.6,3.8,1.2,5.9,0.8c18.7-4.3,37.1-9.8,54.7-17.6c31.9-14.1,56-37,75-65.7c1-1.5,2.1-3.4,2-5
		C861.2,523.7,859,524.4,857.7,524.3z"/>
	<path id="XMLID_105_" fill="#66AF45" d="M919.3,414.2c-2.2-2.5-4.8,0-6.9,0.8c-20.8,7.6-40.5,17.3-58.4,30.5
		c-24.5,18.1-42.5,42-59.6,66.7c-1.1,1.5-2.5,3.1-1.6,5.1c0.4,0.8,2,1.1,2.8,1.5c5.7-2.1,11.1-4,16.4-6
		c46.7-17.4,83.5-46.3,105.7-91.9C918.6,418.8,921.4,416.6,919.3,414.2z"/>
	<path id="XMLID_106_" fill="#66AF45" d="M170.9,250.9c-3-1.1-4.1,2.3-5.6,4.1c-34.9,42.3-47.7,92-48.4,145.7c0,1.8-0.7,4.1,1.4,5.1
		c2.3,1,3.3-1.1,4.4-2.5c29.9-37.1,52.3-77.1,50.2-126.8c0-6.3,0.1-12.6,0-18.9C172.9,255.2,173.6,251.9,170.9,250.9z"/>
	<path id="XMLID_107_" fill="#66AF45" d="M209.4,613.6c1.5-2.5-0.9-4-2.3-5.6c-13.8-16-28.2-31.4-44.8-44.6
		c-25.1-20-54-31.9-84.5-38.9c-2.4-0.1-4.6-1.2-5.7,0.9c-1,2,0.8,3.6,1.8,5.1c6.9,10.2,14.3,19.9,22.7,29
		c29.2,31.4,67.2,45.5,107.7,54.8C206,614.7,208.2,615.6,209.4,613.6z"/>
	<path id="XMLID_108_" fill="#66AF45" d="M815,405.8c2.1-1,1.6-3.3,1.5-5.1c-1.2-14.4-2.1-28.9-3.8-43.2
		c-4.5-38.6-20.8-72.2-44.6-102.4c-1.5-1.8-2.7-5.2-5.6-4.1c-2.7,1-2,4.4-2,6.8c-0.1,6.3,0,12.6,0,18.9
		c-2.2,49.7,20.3,89.7,50.2,126.8C811.7,404.8,812.7,407,815,405.8z"/>
	<path id="XMLID_109_" fill="#66AF45" d="M836.4,345.7c2.1,0.7,3.2-1.5,4.4-2.9c29.6-36.5,51.4-76.2,51-125.1
		c-0.4-5.7-0.5-11.3-1.2-16.9c-0.4-3.5,1.7-9-2.4-10c-3.6-0.9-5.4,4.6-7.7,7.4c-33.6,41.4-44.7,90-46.1,141.9
		C834.3,342.2,833.7,344.9,836.4,345.7z"/>
	<path id="XMLID_110_" fill="#66AF45" d="M42.1,227c1.9,40,18.6,74,42.3,105.1c3.7,4.9,7.7,14.4,12.1,12.7c5.8-2.1,1-11.1,1.4-17
		c0-0.3,0-0.6,0-0.9c0.1,0,0.2,0,0.3,0c-0.9-9.1-1.7-18.2-2.8-27.2c-4.6-40-21-74.8-46-105.9c-1.1-1.4-2.2-3.7-4.2-3.3
		c-3,0.5-2.1,3.4-2.2,5.4C42.4,206.2,41.6,216.6,42.1,227z"/>
	<path id="XMLID_111_" fill="#66AF45" d="M350.6,700.6c-0.3-2.4-2.7-2.4-4.3-2.8c-46.4-10.9-92.7-14.1-138.3,3.8
		c-7.1,2.8-14.9,4.5-21.7,10.3c1.6,1,2.5,1.8,3.6,2.2c54.3,21.8,106.6,13.9,157.9-10.3C349.3,703.2,350.8,702.4,350.6,700.6z"/>
	<path id="XMLID_112_" fill="#66AF45" d="M161,390.3c-1-2.1-1.5-5.5-4.6-5.3c-3.1,0.3-2.9,3.6-3.5,5.9c-3.8,13.7-6.7,27.5-7.7,41.7
		c-2.8,39.5,9.9,75,27.7,109.2c1.1,2,1.5,5.5,4.9,4.6c2.4-0.6,2.3-3.5,2.6-5.6c2-17.5,5-34.9,4.5-53
		C186.3,453.3,176.4,421.1,161,390.3z"/>
	<path id="XMLID_113_" fill="#66AF45" d="M275.4,618.3c-10.7-39.5-32.6-72-62.9-99.1c-1.7-1.5-3.2-4.8-6.1-3.1
		c-2.2,1.2-1.1,4-0.9,6.1c0.7,6.6,1.4,13.2,2.3,19.7c7.4,49,35.6,85.1,71.6,116.5c1.2,1,2.5,2.3,4.2,1.5c1.8-0.8,1-2.7,1.2-5.3
		C281.9,643.2,278.7,630.7,275.4,618.3z"/>
	<path id="XMLID_114_" fill="#66AF45" d="M719.8,520.2c-36,31.8-57.5,71.9-67.3,118.6c-1.5,6.9-4.5,13.7-3.2,23.2
		c11.5-8.8,20.1-17.8,28.8-26.9c29.9-31.2,46.9-68.1,49.7-111.4c0.2-2.6,1.8-6.3-1.3-7.6C723.5,514.8,721.8,518.4,719.8,520.2z"/>
	<path id="XMLID_115_" fill="#66AF45" d="M151.1,178.8c0.1,2.3-1,5.5,2.5,6.2c2.8,0.6,3.5-2.3,4.6-4c4.5-7.2,8.9-14.5,13.4-21.7
		c22.8-36.9,33-77.2,31.1-120.5c-0.1-3.3,1.3-8-2.2-9.4c-3.9-1.6-5.4,3.4-7.5,5.8c-30,35.1-43.3,76-41.9,121.9
		C151,164.3,150.9,171.5,151.1,178.8z"/>
	<path id="XMLID_116_" fill="#66AF45" d="M816.2,278.1c2.8,0,3.1-2.8,3.9-4.7c14.3-36.9,23.1-74.5,15.2-114.3
		c-3.1-15.6-7.7-30.7-15-45.2c-1.5,1-2.2,1.2-2.5,1.7c-0.8,1.3-1.6,2.7-2.2,4.2c-20.8,51.1-18.3,102.5-2.6,154.2
		C813.7,275.8,813.8,278.1,816.2,278.1z"/>
	<path id="XMLID_117_" fill="#66AF45" d="M586.5,697.9c-1.4,0.4-3.4,0.4-3.7,2.3c-0.5,3,2.2,3.4,4.1,4.3
		c28.7,12.6,58,22.5,89.9,22.6c24.2,0,47.2-5.1,70.7-14.7c-2.1-1.9-2.7-2.8-3.5-3.1C693.1,684.5,640.3,684.4,586.5,697.9z"/>
	<path id="XMLID_118_" fill="#66AF45" d="M117,278c3.1,0.1,2.8-2.9,3.3-4.9c6.9-24.9,12.1-50.1,12.7-75.1
		c-0.4-26.7-5.5-51.5-14.6-75.5c-1.1-2.9-1.1-7.4-4.4-7.6c-3.6-0.2-3.7,4.4-4.9,7.1c-21.9,51-16.1,101.3,4,151.2
		C114,275.2,114.3,278,117,278z"/>
	<path id="XMLID_119_" fill="#66AF45" d="M752.9,540.4c0.3,2.4,0,5.7,3.2,6.1c3.1,0.4,3.6-3.1,4.7-5.2c3.2-6.1,6.2-12.4,9.1-18.7
		c19.5-42.1,24.5-85.5,11-130.4c-0.8-2.6-0.5-6.5-3.5-7.1c-3.6-0.8-4,3.4-5.2,5.7c-15.4,30.5-24.9,62.4-23.7,97.3
		C748,505.5,750.8,522.9,752.9,540.4z"/>
	<path id="XMLID_120_" fill="#66AF45" d="M428.8,767.2c-10.6,0.1-19.8,9.4-19.9,20c-0.1,10.7,8.9,19.8,19.7,20
		c11.1,0.2,20.7-9.4,20.4-20.4C448.7,776.1,439.4,767.1,428.8,767.2z"/>
	<path id="XMLID_121_" fill="#66AF45" d="M505.1,767.2c-10.9-0.4-20.7,9.1-20.7,20.1c0,10.7,9.1,19.8,19.9,19.9
		c10.7,0.1,20-8.8,20.3-19.5C524.7,777.1,515.7,767.6,505.1,767.2z"/>
	<path id="XMLID_124_" fill="#66AF45" d="M516.7,496.2c7.7,0,15.5,0,23.2,0.1c8.2,0,16.4,0.1,24.6,0.1l8.1,0c13.6,0,27.6,0,41.4-0.1
		c10.2-0.1,19-7.7,20.4-17.7c1.5-10.3-4.4-20.2-14-23.5c-3.9-1.3-7.7-1.3-11.6-1.1c0.1-14.3,0.1-28.9,0.1-43l0-34.3
		c0-37.6,0-75.2,0-112.9c0-0.1,0-0.1,0-0.2c0,0,0.1,0,0.1,0c10.8-2.5,18.2-11.9,18-22.9c-0.2-11.1-8.1-20.3-19.2-22.4
		c-10.1-1.9-20.8,3.8-24.9,13.3c-4.4,10-1.5,21.3,6.9,27.7c-1.7,2.1-3.3,4.3-4.8,6.4c-1.1,1.4-2.1,2.9-3.2,4.3L564,293
		c-10.4,13.5-20.7,27.1-31.1,40.6c-3.8-5.9-7.7-11.9-11.4-17.7l-8.2-12.6c-9.4-14.5-18.8-28.9-28.3-43.3c1.2-0.8,2.2-1.6,3.1-2.5
		c4.6-4.6,7.1-10.9,6.8-17.3c-0.2-6.4-3-12.3-7.8-16.5c-4.8-4.2-11.3-6.3-17.7-5.6c-6.3,0.7-12.1,3.9-15.9,8.9
		c-3.9,5.2-5.5,11.6-4.4,17.9c1.1,6.1,4.5,11.4,9.6,15c-14.5,22.1-28.9,44.3-43.3,66.4l-4.7,7.2l-9.9-13
		c-15.6-20.4-31.2-40.9-46.8-61.3c9.1-6.9,11.7-20.3,5.7-30.1c-6.3-10.2-19.4-14.1-30-8.9c-9.1,4.5-13.8,13.5-12.7,24
		c1,9.4,8.2,17.1,17.9,19.4c0,0,0,0,0,0.1c0,15.7,0,31.4,0,47.1l0,142.6l0,0.5c-1.4,0-3,0-4.9,0c-10.4,0.2-19.5,8.2-20.7,18.3
		c-1.3,11,5.1,20.7,15.6,23.5c2.6,0.7,5.2,0.9,7.7,0.9c1.4,0,2.7-0.1,4-0.1c1.3-0.1,2.6-0.1,3.9-0.1c34,0.1,68,0.1,102,0.1l29.6,0
		l2.8-0.1l10.8,0C495.9,496.2,506.3,496.2,516.7,496.2z M594.5,231.9c2.5-2.5,6.1-3.9,10.1-3.9c0.1,0,0.1,0,0.2,0
		c6.5,0.1,12.1,6.2,12.1,13v0c-0.1,7.2-5.8,13.1-12.9,13.1c-3.6,0-6.9-1.4-9.4-3.9c-2.5-2.5-3.8-5.8-3.8-9.3
		C590.8,237.4,592.1,234.2,594.5,231.9z M462.5,231.9c2.5-2.5,5.8-3.8,9.3-3.8c0,0,0,0,0,0c3.5,0,6.8,1.4,9.3,3.8
		c2.5,2.5,3.8,5.8,3.8,9.3c0,3.4-1.4,6.7-3.9,9.2c-2.5,2.5-5.8,3.8-9.2,3.8c0,0-0.1,0-0.1,0c-7-0.1-13-6-13-13.1
		C458.7,237.6,460,234.3,462.5,231.9z M399.3,335.2l6.9,9c0.7,1,2.5,3.2,5,3.2c2.6-0.1,4.1-2.5,4.8-3.5
		c17.3-26.5,34.6-53.1,51.8-79.6c0.1-0.1,0.2-0.2,0.2-0.3c0,0,0,0,0,0c2.7,0.7,5.3,0.4,7.5,0c9.9,15.2,19.8,30.4,29.7,45.6l7.3,11.3
		c5,7.7,10,15.4,15.1,23.1c0.7,1,2.2,3.3,4.7,3.4c2.5,0.1,4.2-2.1,4.9-3.1c11.2-14.6,22.4-29.2,33.5-43.9l14.2-18.6
		c1.3-1.7,2.7-3.5,4-5.2c3.2-4.2,6.6-8.5,9.7-12.9c0,0,0,0,0,0c0,0,0,0,0,0c0,0,0,0.1,0,0.1c0,13.8,0,27.6,0,41.5
		c0,24.8,0,49.5,0.1,74.3c0,0,0,0,0,0c-20.8,0-41.6,0-62.4,0c-5.9,0-11.9,0-17.8,0l-17.8,0l-155.9,0c-0.1,0-0.2,0-0.3,0
		c0-0.1,0-0.2,0-0.2V370c0-35.3,0-70.6,0-105.9c0-0.1,0-0.3,0-0.4c0.1,0,0.2,0.1,0.3,0.3C363,287.7,381.5,311.9,399.3,335.2z
		 M344.6,389.4c25.8,0,51.5,0,77.3,0l17.5,0l52.2,0c35.8,0,71.5,0,107.3-0.1c-0.1,22-0.1,43.7,0,64.5c-56.9,0-113.8,0-170.7,0
		l-37.5,0c-15.4,0-30.8,0-46.1,0C344.7,432.1,344.7,410.4,344.6,389.4z M330.6,250.5c-2.6-2.5-4-5.9-4-9.4c0-3.5,1.4-6.8,3.9-9.4
		c2.5-2.5,5.7-3.8,9.1-3.8c7.1,0.1,13,6.1,13.1,13c0,7.2-5.9,13.1-13.1,13.2c-0.1,0-0.1,0-0.2,0
		C336.2,254.2,333.1,252.9,330.6,250.5z M345.2,486.3l-4.5,0c-3.5,0-6.9,0-10.4,0c-6.6-0.1-11.3-4.7-11.3-11.1
		c0-6.4,4.9-11.3,11.5-11.3c13.3,0,26.5,0,39.8,0l167.2,0c9.3,0,18.5,0,27.7,0c15.9,0,31.9,0,47.8,0c4.3,0,8.1,2.1,10.1,5.5
		c2,3.4,2.1,7.4,0.2,11c-1.9,3.7-4.9,5.6-9,5.8c-3.4,0.1-6.9,0.1-10.3,0.1c-1.3,0-2.6,0-4,0c0,0-0.1,0-0.1,0H345.2z"/>
	<path id="XMLID_132_" fill="#66AF45" d="M467.5,444.8c0.7,0.9,2,2.2,4.2,2.2c0.1,0,0.3,0,0.4,0c2.1,0,3.3-1.5,3.9-2.3
		c5.7-7.1,11.4-14.1,17.1-21.2c2-2.5,2-5.2,0-7.7c-3-3.7-6.1-7.5-9.1-11.3c-2.7-3.3-5.3-6.6-8-9.9c-0.5-0.6-2-2.5-4.4-2.5
		c0,0,0,0,0,0c-2.3,0-3.8,1.8-4.3,2.4c-2.7,3.3-5.4,6.7-8.1,10c-3,3.7-6,7.5-9.1,11.2c-2,2.5-2.1,5.2-0.1,7.7
		C456,430.6,461.8,437.7,467.5,444.8z M469.3,408.3l2.5-3.1c2.6,3.2,5.2,6.5,7.8,9.7l3.9,4.8l-3.8,4.7c-2.6,3.3-5.3,6.5-7.9,9.8
		c-3.8-4.7-7.7-9.6-11.7-14.5C463.2,415.9,466.2,412.1,469.3,408.3z"/>
	<path id="XMLID_135_" fill="#66AF45" d="M375.6,434.9c0.3,0,0.6,0,1,0c7.6,0,14.1-6.3,14.8-14.4c0.3-3.8-1-7.5-3.6-10.6
		c-2.8-3.2-6.7-5.2-10.9-5.5c-3.9-0.3-7.9,1.1-11,3.8c-3,2.6-4.9,6.2-5.1,10C360.1,427.5,366,434.2,375.6,434.9z M372.3,415.9
		c1-0.9,2.3-1.4,3.8-1.4c0,0,0.1,0,0.1,0c1.4,0,2.7,0.6,3.7,1.6c1,1,1.5,2.4,1.4,3.8c-0.1,3.1-2.1,5.2-5,5.1c-1.7,0-3.1-0.6-4.1-1.6
		c-0.9-1-1.4-2.3-1.4-3.9C370.8,418.1,371.3,416.8,372.3,415.9z"/>
	<path id="XMLID_138_" fill="#66AF45" d="M566,435c0.3,0,0.7,0,1,0c4.3,0,8.2-1.5,11.1-4.2c3-2.9,4.7-6.8,4.7-11.3
		c0.2-3.7-1.2-7.2-3.8-10.1c-2.8-3.1-6.8-4.9-10.9-5.1c-4-0.2-7.8,1.3-10.9,4c-3.1,2.8-4.9,6.8-5.1,10.9
		C551.9,427.1,558.5,434.5,566,435z M567.6,414.5C567.6,414.5,567.6,414.5,567.6,414.5c1.5,0,2.8,0.5,3.8,1.5c1,0.9,1.5,2.3,1.5,3.7
		c0,3-2.2,5.3-5.2,5.3h0c-1.5,0.1-2.8-0.5-3.8-1.5c-1-1-1.5-2.3-1.5-3.6C562.3,416.7,564.6,414.5,567.6,414.5z"/>
	<path id="XMLID_141_" fill="#66AF45" d="M521.9,435c0.2,0,0.4,0,0.6,0c8,0,15-6.4,15.3-14.3c0.2-4.4-1.2-8.4-3.9-11.4
		c-2.7-2.9-6.6-4.6-11-4.8c-8.6-0.4-15.3,5.9-15.8,14.6c-0.2,4,1.2,7.8,3.9,10.8C514,433,517.9,434.8,521.9,435z M522.6,414.5
		C522.6,414.5,522.6,414.5,522.6,414.5c1.5,0,2.8,0.5,3.8,1.5c1,1,1.5,2.3,1.5,3.7c0,1.4-0.5,2.8-1.5,3.8c-1,1-2.3,1.5-3.7,1.5
		c0,0,0,0,0,0c-1.5,0-2.9-0.6-3.9-1.6c-1-1-1.5-2.3-1.5-3.7C517.3,416.8,519.7,414.5,522.6,414.5z"/>
	<path id="XMLID_144_" fill="#66AF45" d="M420.5,435c0.1,0,0.2,0,0.3,0c8.5,0,15.3-6.6,15.5-15.2c0.2-8.3-6.6-15.1-15.5-15.5
		c-3.6-0.1-7.4,1.3-10.3,4.1c-3,2.9-4.8,6.8-4.9,10.8C405.5,427.9,412.1,434.8,420.5,435z M417.2,416c1-1,2.3-1.5,3.8-1.5
		c0,0,0,0,0,0c3,0,5.4,2.3,5.4,5.2c0,2.8-2.5,5.3-5.4,5.3c0,0,0,0,0,0c-3,0-5.3-2.3-5.3-5.2C415.7,418.3,416.2,417,417.2,416z"/>
</g>
</svg>
