<?xml version="1.0" encoding="utf-8"?>
<!-- Generator: Adobe Illustrator 19.0.0, SVG Export Plug-In . SVG Version: 6.00 Build 0)  -->
<!DOCTYPE svg PUBLIC "-//W3C//DTD SVG 1.1//EN" "http://www.w3.org/Graphics/SVG/1.1/DTD/svg11.dtd">
<svg version="1.1" id="Layer_1" xmlns="http://www.w3.org/2000/svg" xmlns:xlink="http://www.w3.org/1999/xlink" x="0px" y="0px"
	 viewBox="0 0 948 808.3" enable-background="new 0 0 948 808.3" xml:space="preserve">
<g>
	<path d="M1936.8,410.7c-2.2,0-2-1.3-1.3-2.6c1.4-2.8,2.8-5.7,4.2-8.5c11.9-22.8,29.1-39.9,53.8-48.6c1.2-0.4,2.5-1.7,3.7-0.6
		c1.3,1.2,0,2.4-0.5,3.6c-12.2,26.4-33.1,43.6-58.5,56.2C1937.7,410.3,1937.3,410.5,1936.8,410.7z"/>
	<path d="M2091.6,656.1c-1.1,0.8-2.1,0.6-3.1,0.3c-27.4-8.7-50.4-23.2-63.7-49.9c-0.6-1.3-2.3-2.6-1.3-4c1.1-1.5,2.8,0,4.1,0.4
		c27.9,8.8,47.7,27.6,63.4,51.4C2091.4,654.9,2091.5,655.6,2091.6,656.1z"/>
	<path d="M2213.5,350c1.2,0.4,2.2,0.8,3.1,1.1c22,8,38.5,22.5,50.1,42.8c2.5,4.5,4.9,9.1,7.2,13.6c0.4,0.8,1.2,1.8,0.3,2.7
		c-0.9,0.9-1.8,0.2-2.7-0.2c-25.6-12.6-46.6-30-58.8-56.6C2212.1,352,2211,350.4,2213.5,350z"/>
	<path d="M2002,680.5c0.6-2.4,2.3-2.7,3.5-3.4c24.4-14.5,50.9-17.4,78.5-13.6c1.2,0.2,2.9-0.3,3.4,1.4c0.3,1.1-1,1.6-1.8,2.1
		c-18.3,10.7-37.5,18.7-59.4,17.6C2018.1,684.1,2010.1,682.8,2002,680.5z"/>
	<path d="M2186.6,603.2c-0.6,1.1-1.2,2.2-1.7,3.2c-11,21.6-28.3,36.2-50.6,45.1c-4.3,1.7-8.7,3.3-13.1,4.9c-0.9,0.3-2.1,0.7-2.8-0.1
		c-0.8-0.9,0.1-1.8,0.7-2.6c15.8-23.5,35.6-42.1,63.3-50.7C2183.8,602.5,2185.4,601,2186.6,603.2z"/>
	<path d="M1867,496.1c1.2,0.4,2.3,0.8,3.4,1.2c22.4,7.9,40.3,21.6,54.1,40.9c2.4,3.4,4.9,6.8,7.3,10.1c0.6,0.8,1.3,1.8,0.7,2.7
		c-0.7,0.9-1.8,0.5-2.8,0.2c-20-7.1-38.7-16.3-52.1-33.7c-4.5-5.8-8.3-12.1-11.6-18.6C1865.4,497.7,1864.4,496.2,1867,496.1z"/>
	<path d="M2334.7,441.6c-2.2,16.3-7,31.5-17,44.7c-7.1,9.5-15.6,17.7-24.8,25.1c-0.9,0.7-1.7,1.9-3,1.4c-1.3-0.5-0.8-1.6-0.6-2.5
		c6.6-27.7,18.6-52.2,41.7-70.1c0.9-0.7,1.7-2,2.9-1.5C2335.4,439.1,2334.5,440.6,2334.7,441.6z"/>
	<path d="M2208.6,680.2c-12.6,3.7-24.3,5.3-36.3,4.2c-17.3-1.6-32.7-8.4-47.5-17c-1-0.6-2.8-0.9-2.4-2.7c0.3-1.1,1.6-0.9,2.6-1
		c28.5-4.1,55.7-1,80.8,14.3C2206.3,678.3,2206.9,678.9,2208.6,680.2z"/>
	<path d="M1874.9,441.6c0.2-1.2-0.5-2.5,0.7-3c1.3-0.5,2.1,0.7,3,1.4c15.9,13,28.1,28.7,34.9,48.3c2.4,7,4.4,14.3,6.5,21.4
		c0.3,1,1.3,2.2-0.2,3c-1.1,0.6-1.8-0.4-2.6-1c-21.1-16.6-37.1-36.6-41.2-64.1C1875.6,445.5,1875.2,443.4,1874.9,441.6z"/>
	<path d="M2271.6,361c0,4,0,8,0,12c0,1,0.1,2.2-1.1,2.5c-1.2,0.4-1.8-0.7-2.3-1.5c-10-15.6-19.2-31.5-22.2-50.2
		c-1.4-8.7-2.1-17.5-1.6-26.3c0.1-1.5-0.5-3.8,1.4-4.3c1.6-0.5,2.3,1.6,3.3,2.6C2265.2,314.5,2272.5,336.3,2271.6,361z"/>
	<path d="M2014.5,291.4c1,1.9-0.1,3.5-0.7,5.2c-7.9,25-23.7,43.9-44.8,58.8c-2.4,1.7-5.2,5.7-7.2,4.2c-2.5-2,0.6-5.7,1.6-8.5
		c8.3-25.1,22.6-45.4,46.5-57.9C2011.4,292.5,2012.7,291.3,2014.5,291.4z"/>
	<path d="M2274.4,607.8c7-0.2,13.6,0.5,20.2,1.5c1,0.2,2.6,0,2.9,1.4c0.4,1.4-1.1,1.9-2,2.5c-18.4,12.8-38.7,18.8-61.1,17.1
		c-6.5-0.5-12.9-1.5-19.3-2.4c-0.9-0.1-2.2,0-2.4-1.3c-0.2-1.2,0.9-1.6,1.8-2C2233.4,615,2252.7,606.9,2274.4,607.8z"/>
	<path d="M1936,607.8c21.2-0.9,40.3,7.3,59,16.6c0.9,0.4,2.1,0.8,2,1.9c-0.1,1.7-1.7,1.4-2.7,1.6c-28.4,5.5-55.4,2.7-79.7-14.5
		c-1-0.7-2.8-1.2-2.4-2.8c0.4-1.5,2.2-1.3,3.4-1.4C1922.3,608.4,1928.9,607.5,1936,607.8z"/>
	<path d="M2195.4,291.1c12.9,6.5,24.3,14.7,33.2,26.2c9.2,11.8,15,25.4,19.5,39.6c0.3,1.1,1.1,2.3-0.1,3.1c-1,0.7-1.8-0.3-2.6-0.9
		c-23.3-15.9-41.4-35.8-49.9-63.3C2195,294.4,2194.2,293,2195.4,291.1z"/>
	<path d="M2311.5,554.8c0.7,0,1.8-0.3,1.9,0.7c0.1,0.9-0.5,1.9-1.1,2.6c-10,15.2-22.8,27.3-39.6,34.7c-9.3,4.1-19,7-28.9,9.3
		c-1.1,0.2-2.3,1-3.1-0.4c-0.5-0.9,0.2-1.6,0.7-2.2c18.1-22.1,39.8-38.6,68.5-44.6C2310.4,554.9,2310.9,554.8,2311.5,554.8z"/>
	<path d="M2278.6,551.8c-0.5-0.2-1.3-0.4-1.5-0.8c-0.5-1,0.3-1.9,0.8-2.7c9.1-13,18.6-25.7,31.5-35.2c9.5-7,19.9-12.1,30.9-16.1
		c1.1-0.4,2.5-1.7,3.7-0.4c1.2,1.3-0.3,2.4-0.9,3.5c-11.7,24.1-31.2,39.4-55.9,48.5C2284.5,549.7,2281.6,550.7,2278.6,551.8z"/>
	<path d="M1949.7,423.8c1.1,26.2-10.7,47.4-26.5,67c-0.6,0.7-1.2,1.9-2.3,1.3c-1.1-0.5-0.8-1.7-0.8-2.7c0.4-28.4,7.1-54.6,25.6-77
		c0.8-1,1.4-2.7,3-2.2c1.5,0.5,1.1,2.3,1.1,3.6C1949.7,417.2,1949.7,420.5,1949.7,423.8z"/>
	<path d="M1899.3,554.9c16.1,3.7,31.4,10,44.7,20.6c8.8,7,16.4,15.1,23.7,23.6c0.7,0.8,2,1.6,1.2,2.9c-0.6,1.1-1.8,0.6-2.7,0.3
		c-21.4-4.9-41.5-12.4-56.9-29c-4.4-4.8-8.4-9.9-12-15.3c-0.5-0.8-1.5-1.6-0.9-2.7C1896.9,554.2,1898.1,554.8,1899.3,554.9z"/>
	<path d="M2260,423.9c0-3.3,0-6.7,0-10c0-1.3-0.3-3,1.1-3.6c1.5-0.6,2.2,1.2,3,2.2c12.6,16,21.2,33.7,23.6,54.1
		c0.9,7.6,1.4,15.2,2,22.8c0.1,0.9,0.3,2.1-0.8,2.7c-1.2,0.6-1.8-0.6-2.3-1.3C2270.8,471.3,2258.9,450.1,2260,423.9z"/>
	<path d="M2329.5,392.7c0.2,25.8-11.3,46.8-26.9,66.1c-0.6,0.7-1.2,1.9-2.3,1.6c-1.4-0.5-1.1-1.9-1-3c0.8-27.4,6.6-53.1,24.3-75
		c1.2-1.5,2.2-4.4,4.1-3.9c2.2,0.5,1,3.4,1.3,5.3C2329.2,386.8,2329.3,389.8,2329.5,392.7z"/>
	<path d="M1910,450.4c0,0.2,0,0.3,0,0.5c-0.2,3.2,2.3,7.9-0.7,9c-2.4,0.9-4.4-4.2-6.4-6.7c-12.5-16.5-21.4-34.4-22.4-55.6
		c-0.3-5.5,0.2-11,0.5-16.5c0.1-1.1-0.4-2.6,1.2-2.9c1.1-0.2,1.6,1,2.2,1.7c13.2,16.4,21.9,34.9,24.3,56c0.6,4.8,1,9.6,1.5,14.4
		C1910.1,450.4,1910,450.4,1910,450.4z"/>
	<path d="M1956.7,653.9c3.6-3,7.7-4,11.5-5.4c24.1-9.5,48.5-7.8,73.1-2c0.9,0.2,2.2,0.2,2.3,1.5c0.1,1-0.7,1.4-1.5,1.7
		c-27.1,12.8-54.8,17-83.4,5.4C1958,654.8,1957.6,654.4,1956.7,653.9z"/>
	<path d="M1955.9,535.5c0.3,9.5-1.3,18.7-2.4,28c-0.1,1.1-0.1,2.6-1.4,3c-1.8,0.5-2-1.4-2.6-2.4c-9.5-18.1-16.1-36.8-14.7-57.7
		c0.5-7.5,2.1-14.8,4.1-22c0.3-1.2,0.2-3,1.9-3.1c1.6-0.1,1.9,1.7,2.4,2.8C1951.5,500.2,1956.7,517.2,1955.9,535.5z"/>
	<path d="M2008.8,623.6c-0.1,1.4,0.3,2.4-0.7,2.8c-0.9,0.4-1.6-0.3-2.2-0.8c-19-16.6-34-35.7-37.9-61.6c-0.5-3.5-0.9-6.9-1.2-10.4
		c-0.1-1.1-0.7-2.6,0.5-3.2c1.5-0.9,2.3,0.8,3.2,1.6c16,14.3,27.6,31.5,33.2,52.4C2005.5,611,2007.2,617.6,2008.8,623.6z"/>
	<path d="M2201.3,627.5c-0.7-5,0.9-8.6,1.7-12.3c5.2-24.6,16.5-45.9,35.6-62.6c1.1-0.9,2-2.9,3.5-2.2c1.6,0.7,0.8,2.7,0.7,4
		c-1.5,22.9-10.5,42.4-26.3,58.9C2212,618.1,2207.4,622.9,2201.3,627.5z"/>
	<path d="M1938.1,360.7c-0.8-24.2,6.3-45.9,22.1-64.4c1.1-1.3,1.9-3.9,4-3.1c1.8,0.7,1.1,3.3,1.2,5c1,22.9-4.4,44.1-16.4,63.7
		c-2.4,3.8-4.7,7.7-7.1,11.5c-0.6,0.9-1,2.4-2.4,2.1c-1.9-0.4-1.3-2.1-1.3-3.3C1938,368.3,1938.1,364.5,1938.1,360.7z"/>
	<path d="M2291.7,337.9c3.8,7.6,6.3,15.6,7.9,23.9c4.2,21-0.5,40.9-8.1,60.4c-0.4,1-0.6,2.5-2.1,2.5c-1.3,0-1.3-1.2-1.6-2.2
		c-8.3-27.3-9.6-54.5,1.4-81.5c0.3-0.8,0.7-1.5,1.1-2.2C2290.6,338.5,2290.9,338.4,2291.7,337.9z"/>
	<path d="M2253.2,654.1c-12.4,5.1-24.6,7.8-37.3,7.7c-16.8,0-32.3-5.3-47.5-11.9c-1-0.4-2.4-0.7-2.2-2.3c0.2-1,1.2-1,2-1.2
		c28.4-7.1,56.3-7.1,83.2,6C2251.8,652.7,2252.1,653.1,2253.2,654.1z"/>
	<path d="M1928.6,382.4c-0.3,13.2-3,26.5-6.7,39.7c-0.3,1.1-0.1,2.6-1.8,2.6c-1.4,0-1.6-1.5-2-2.5c-10.6-26.4-13.7-53-2.1-79.9
		c0.6-1.4,0.7-3.9,2.6-3.8c1.8,0.1,1.8,2.5,2.3,4C1925.7,355.2,1928.3,368.3,1928.6,382.4z"/>
	<path d="M2253.7,535.6c-0.6-18.4,4.4-35.3,12.5-51.4c0.6-1.2,0.8-3.4,2.7-3c1.6,0.3,1.5,2.4,1.9,3.8c7.1,23.7,4.5,46.6-5.8,68.9
		c-1.5,3.3-3.1,6.6-4.8,9.9c-0.6,1.1-0.8,2.9-2.5,2.7c-1.7-0.2-1.5-2-1.7-3.2C2254.9,554,2253.5,544.8,2253.7,535.6z"/>
	<path d="M2084.8,683.1c5.6-0.1,10.5,4.7,10.7,10.4c0.2,5.8-4.9,10.9-10.8,10.8c-5.7-0.1-10.5-4.9-10.4-10.6
		C2074.4,688,2079.2,683.1,2084.8,683.1z"/>
	<path d="M2135.4,693.9c-0.1,5.7-5,10.4-10.7,10.3c-5.7-0.1-10.5-4.9-10.5-10.5c0-5.8,5.2-10.8,10.9-10.6
		C2130.7,683.3,2135.5,688.3,2135.4,693.9z"/>
</g>
<g id="Isas8B.tif">
	<g>
		<path d="M2104.9,399.8c23.2,0,46.3,0,69.5-0.1c2.5,0,4,0.7,5.4,2.9c8.3,13.4,16.7,26.7,25.2,39.9c1.4,2.2,1.3,3.5-0.4,5.4
			c-32.4,36.6-64.8,73.3-97.2,110c-1.7,2-2.7,2.5-4.8,0.2c-32.4-36.9-64.9-73.6-97.4-110.4c-1.8-2-1.6-3.2-0.3-5.3
			c8.5-13.2,16.9-26.5,25.2-39.9c1.4-2.2,2.9-2.9,5.4-2.9C2058.6,399.8,2081.7,399.8,2104.9,399.8z M2141.5,448.5
			c-0.8-0.2-1.2-0.3-1.6-0.3c-23,0-46,0-69-0.1c-4,0-1.8,2.1-1.3,3.4c11.3,27.9,22.6,55.7,33.9,83.6c0.4,0.9,0.3,2.2,1.8,2.4
			C2117.3,507.9,2129.4,478.3,2141.5,448.5z M2194.3,448.2c-14.1,0-27,0.1-40-0.1c-2.9,0-4.1,0.9-5.2,3.5
			c-8.6,21.5-17.4,43-26.2,64.5c-2.7,6.8-5.4,13.5-8.2,20.3c0.2,0.1,0.4,0.2,0.6,0.3C2141.5,507.5,2167.6,478.2,2194.3,448.2z
			 M2094,536.4c0.7-1.1,0.2-1.8-0.1-2.5c-11.3-27.7-22.6-55.5-33.7-83.2c-0.9-2.2-2.1-2.5-4.2-2.5c-12.4,0.1-24.9,0-37.3,0.1
			c-0.8,0-1.9-0.5-2.5,0.9C2042.1,478.1,2068,507.2,2094,536.4z M2140.4,440.2c-0.2-0.5-0.2-0.8-0.3-0.9
			c-11.1-10.2-22.3-20.3-33.3-30.5c-1.9-1.8-2.9-0.7-4.2,0.5c-10.4,9.5-20.9,19-31.4,28.5c-0.7,0.6-1.9,1-1.6,2.3
			C2093.1,440.2,2116.7,440.2,2140.4,440.2z M2194.2,440.3c-7.2-11.3-13.9-22-21-33.1c-7.1,11.2-13.9,21.9-21,33.1
			C2166.5,440.3,2179.9,440.3,2194.2,440.3z M2057.4,440.2c-7.2-11.3-13.9-21.9-21-33c-7.1,11.3-13.9,22-20.9,33
			C2029.8,440.2,2043.2,440.2,2057.4,440.2z M2118.7,407c-0.2,0.3-0.3,0.6-0.5,0.8c9,8.2,18,16.5,27.1,24.7c1.5,1.4,2,0.2,2.6-0.9
			c4.7-7.5,9.4-14.9,14.2-22.4c1-1.5,1.1-2.4-1.1-2.4C2146.9,407,2132.8,407,2118.7,407z M2047,407.3c0.5,1.1,0.9,1.9,1.3,2.7
			c4.4,7,9,14,13.3,21.1c1.6,2.6,2.6,2.1,4.4,0.5c7.6-7,15.2-13.9,22.8-20.9c1-0.9,2.5-1.5,2.8-3.3
			C2076.8,407.3,2062.1,407.3,2047,407.3z"/>
	</g>
</g>
<g>
	<g id="XMLID_80_">
		<path id="XMLID_169_" fill="#8561A9" d="M163.4,245.8c-4.2-0.1-3.6-2.3-2.4-4.9c2.6-5.2,5.2-10.5,7.9-15.7
			c22.1-42.3,53.8-73.9,99.6-90c2.2-0.8,4.6-3.1,6.8-1.2c2.5,2.2,0,4.5-1,6.6c-22.5,48.9-61.3,80.8-108.4,104
			C165.1,245,164.3,245.4,163.4,245.8z"/>
		<path id="XMLID_168_" fill="#8561A9" d="M450.1,700.2c-2,1.5-3.9,1.1-5.6,0.6c-50.8-16.1-93.2-43-118-92.4
			c-1.2-2.3-4.3-4.8-2.4-7.3c2.1-2.8,5.2,0,7.6,0.8c51.6,16.3,88.3,51,117.4,95.1C449.7,698,449.8,699.3,450.1,700.2z"/>
		<path id="XMLID_167_" fill="#8561A9" d="M675.8,133.4c2.3,0.8,4,1.5,5.8,2.1c40.8,14.9,71.4,41.7,92.7,79.3
			c4.7,8.3,9,16.8,13.4,25.3c0.8,1.6,2.3,3.3,0.6,5c-1.6,1.6-3.4,0.4-5-0.4c-47.4-23.4-86.3-55.6-108.9-104.8
			C673.1,137.1,671.1,134.3,675.8,133.4z"/>
		<path id="XMLID_166_" fill="#8561A9" d="M284.2,745.4c1.1-4.5,4.2-5,6.5-6.4c45.3-26.9,94.3-32.3,145.4-25.2
			c2.2,0.3,5.4-0.5,6.2,2.5c0.6,2.1-1.8,2.9-3.3,3.8c-34,19.8-69.5,34.6-109.9,32.6C314,752.2,299.1,749.8,284.2,745.4z"/>
		<path id="XMLID_165_" fill="#8561A9" d="M626,602.4c-1.1,2.1-2.2,4-3.2,5.9c-20.3,40.1-52.4,67-93.7,83.5
			c-8,3.2-16.1,6.1-24.2,9.1c-1.7,0.6-3.9,1.3-5.2-0.2c-1.5-1.7,0.2-3.4,1.2-4.9c29.3-43.6,65.9-78,117.3-94
			C620.7,601,623.7,598.2,626,602.4z"/>
		<path id="XMLID_164_" fill="#8561A9" d="M34.2,404.1c2.3,0.8,4.3,1.5,6.4,2.3c41.4,14.6,74.7,40.1,100.1,75.8
			c4.5,6.3,9,12.5,13.5,18.8c1.1,1.5,2.5,3.3,1.2,5c-1.3,1.8-3.4,1-5.1,0.4c-37.1-13.1-71.6-30.3-96.4-62.4
			c-8.3-10.8-15.4-22.3-21.6-34.4C31.1,407,29.3,404.1,34.2,404.1z"/>
		<path id="XMLID_163_" fill="#8561A9" d="M900.2,303c-4,30.1-13,58.3-31.4,82.9c-13.2,17.6-29,32.7-46,46.5
			c-1.6,1.3-3.1,3.4-5.5,2.5c-2.5-0.9-1.5-3-1.1-4.7c12.3-51.3,34.4-96.7,77.1-129.9c1.6-1.3,3.1-3.7,5.4-2.9
			C901.6,298.4,899.8,301.2,900.2,303z"/>
		<path id="XMLID_162_" fill="#8561A9" d="M666.6,744.8c-23.3,6.8-45.1,9.7-67.3,7.7c-32-3-60.6-15.6-88-31.5
			c-1.9-1.1-5.2-1.7-4.5-5c0.5-2.1,3-1.7,4.7-1.9c52.8-7.7,103.2-1.8,149.6,26.6C662.5,741.4,663.6,742.5,666.6,744.8z"/>
		<path id="XMLID_161_" fill="#8561A9" d="M48.8,303c0.4-2.3-0.9-4.7,1.4-5.5c2.4-0.9,3.9,1.3,5.5,2.6c29.4,24.1,52,53.2,64.6,89.4
			c4.5,13,8.1,26.4,12.1,39.7c0.6,1.9,2.4,4.1-0.4,5.6c-2,1.1-3.4-0.7-4.8-1.8C88,402.2,58.4,365.3,50.8,314.3
			C50.2,310.3,49.4,306.4,48.8,303z"/>
		<path id="XMLID_160_" fill="#8561A9" d="M783.4,153.7c0,7.4,0,14.8,0,22.2c0,1.8,0.1,4-2,4.7c-2.3,0.7-3.3-1.3-4.2-2.8
			c-18.6-28.8-35.5-58.4-41.1-93c-2.6-16.2-3.8-32.4-3-48.8c0.1-2.8-1-6.9,2.6-8c3-0.9,4.3,2.9,6,4.9
			C771.5,67.6,785.1,108.1,783.4,153.7z"/>
		<path id="XMLID_159_" fill="#8561A9" d="M307.3,25c1.9,3.6-0.2,6.6-1.2,9.7c-14.6,46.2-43.9,81.3-82.9,108.9
			c-4.4,3.1-9.7,10.5-13.3,7.8c-4.6-3.6,1.1-10.5,2.9-15.7c15.4-46.4,41.9-84,86.2-107.2C301.6,27.1,303.9,24.7,307.3,25z"/>
		<path id="XMLID_158_" fill="#8561A9" d="M788.5,610.8c12.9-0.3,25.1,0.9,37.3,2.8c1.9,0.3,4.8,0,5.4,2.5c0.7,2.6-2.1,3.4-3.8,4.6
			c-34,23.8-71.7,34.8-113.2,31.6c-11.9-0.9-23.8-2.8-35.7-4.4c-1.7-0.2-4.1-0.1-4.5-2.3c-0.4-2.2,1.8-2.9,3.4-3.8
			C712.5,624.2,748.4,609.1,788.5,610.8z"/>
		<path id="XMLID_157_" fill="#8561A9" d="M161.9,610.9c39.3-1.6,74.6,13.5,109.3,30.7c1.6,0.8,3.9,1.5,3.8,3.6
			c-0.1,3.1-3.1,2.5-5,2.9c-52.7,10.2-102.5,5-147.5-26.8c-1.9-1.3-5.3-2.1-4.5-5.1c0.7-2.7,4.1-2.4,6.3-2.7
			C136.5,611.9,148.8,610.2,161.9,610.9z"/>
		<path id="XMLID_156_" fill="#8561A9" d="M642.3,24.3c23.8,12,44.9,27.3,61.5,48.5c17.1,21.9,27.7,47,36.1,73.2
			c0.6,2,2,4.3-0.3,5.8c-1.8,1.3-3.4-0.6-4.8-1.6C691.7,120.9,658.1,84,642.4,33C641.6,30.5,640,27.9,642.3,24.3z"/>
		<path id="XMLID_155_" fill="#8561A9" d="M857.2,512.6c1.3,0,3.4-0.6,3.5,1.4c0.1,1.6-1,3.4-2,4.9c-18.6,28.1-42.2,50.5-73.4,64.3
			c-17.3,7.6-35.2,13-53.5,17.2c-2,0.5-4.3,1.8-5.8-0.7c-0.9-1.6,0.5-2.9,1.4-4c33.5-41,73.8-71.6,126.8-82.6
			C855.1,512.8,856.1,512.8,857.2,512.6z"/>
		<path id="XMLID_154_" fill="#8561A9" d="M796.3,507.1c-0.8-0.4-2.4-0.7-2.8-1.5c-1-1.9,0.5-3.5,1.5-5
			c16.8-24.1,34.4-47.5,58.3-65.2c17.5-12.9,36.8-22.4,57.2-29.8c2.1-0.8,4.6-3.2,6.8-0.8c2.1,2.4-0.6,4.5-1.6,6.5
			c-21.8,44.6-57.7,72.9-103.4,89.9C807.2,503.2,802,505,796.3,507.1z"/>
		<path id="XMLID_153_" fill="#8561A9" d="M187.2,270.1c2.1,48.6-19.8,87.8-49.1,124.1c-1.1,1.3-2.1,3.5-4.3,2.4
			c-2.1-1-1.4-3.2-1.4-5c0.7-52.5,13.1-101.2,47.3-142.6c1.5-1.8,2.6-5.1,5.5-4c2.7,1,2,4.2,2,6.6
			C187.3,257.8,187.2,264,187.2,270.1z"/>
		<path id="XMLID_152_" fill="#8561A9" d="M94,512.8c29.8,6.9,58.1,18.5,82.7,38.1c16.2,12.9,30.3,28,43.9,43.6
			c1.3,1.5,3.7,3,2.2,5.5c-1.2,2-3.3,1-5,0.6c-39.6-9.1-76.8-22.9-105.4-53.6c-8.2-8.8-15.5-18.3-22.2-28.3c-1-1.5-2.7-3-1.7-4.9
			C89.5,511.6,91.7,512.7,94,512.8z"/>
		<path id="XMLID_151_" fill="#8561A9" d="M762,270.2c0-6.2-0.1-12.3,0-18.5c0-2.4-0.6-5.6,2-6.6c2.9-1.1,4.1,2.2,5.5,4
			c23.3,29.6,39.2,62.5,43.7,100.2c1.7,14.1,2.5,28.2,3.7,42.3c0.1,1.7,0.6,4-1.4,5c-2.3,1.1-3.3-1-4.3-2.4
			C781.8,358,759.8,318.8,762,270.2z"/>
		<path id="XMLID_150_" fill="#8561A9" d="M890.5,212.6c0.4,47.8-20.9,86.6-49.9,122.4c-1.1,1.4-2.2,3.5-4.3,2.9
			c-2.7-0.8-2-3.5-1.9-5.6c1.4-50.7,12.3-98.3,45.1-138.8c2.3-2.8,4-8.1,7.5-7.3c4.1,1,1.9,6.4,2.4,9.8
			C890,201.5,890.1,207.1,890.5,212.6z"/>
		<path id="XMLID_149_" fill="#8561A9" d="M113.7,319.4c0,0.3,0.1,0.6,0,0.9c-0.4,5.8,4.3,14.6-1.4,16.7c-4.4,1.6-8.2-7.7-11.9-12.5
			C77.3,294.1,61,260.9,59.2,221.7c-0.5-10.2,0.3-20.3,0.9-30.5c0.1-2-0.8-4.8,2.2-5.3c2-0.4,3,1.8,4.2,3.2
			c24.4,30.4,40.5,64.5,45,103.6c1,8.9,1.8,17.8,2.7,26.7C113.9,319.4,113.8,319.4,113.7,319.4z"/>
		<path id="XMLID_148_" fill="#8561A9" d="M200.2,696.1c6.7-5.6,14.3-7.3,21.2-10.1c44.6-17.5,89.9-14.4,135.3-3.7
			c1.6,0.4,4,0.3,4.3,2.7c0.2,1.8-1.3,2.5-2.8,3.2c-50.2,23.7-101.4,31.4-154.5,10.1C202.7,697.9,201.8,697.1,200.2,696.1z"/>
		<path id="XMLID_147_" fill="#8561A9" d="M198.9,476.9c0.5,17.7-2.4,34.7-4.4,51.8c-0.2,2.1-0.2,4.9-2.5,5.5
			c-3.3,0.9-3.8-2.5-4.8-4.5c-17.5-33.5-29.9-68.2-27.2-106.9c1-13.9,3.9-27.4,7.5-40.8c0.6-2.2,0.4-5.5,3.4-5.8
			c3-0.3,3.5,3.1,4.5,5.2C190.5,411.6,200.2,443.1,198.9,476.9z"/>
		<path id="XMLID_146_" fill="#8561A9" d="M296.6,640.1c-0.2,2.6,0.6,4.4-1.2,5.2c-1.7,0.8-2.9-0.5-4.1-1.5
			c-35.2-30.7-62.9-66.1-70.1-114c-1-6.4-1.6-12.8-2.3-19.3c-0.2-2-1.2-4.8,0.9-6c2.9-1.7,4.3,1.5,6,3c29.6,26.5,51,58.3,61.5,97
			C290.7,616.7,293.7,628.9,296.6,640.1z"/>
		<path id="XMLID_145_" fill="#8561A9" d="M653.2,647.3c-1.3-9.3,1.7-15.9,3.1-22.7c9.6-45.6,30.6-84.9,65.9-116
			c2-1.7,3.6-5.3,6.6-4.1c3,1.3,1.4,4.9,1.2,7.5c-2.8,42.3-19.4,78.5-48.7,109C672.9,629.8,664.5,638.7,653.2,647.3z"/>
		<path id="XMLID_89_" fill="#8561A9" d="M165.7,153.2c-1.4-44.9,11.6-84.9,41-119.3c2-2.4,3.5-7.2,7.3-5.7c3.4,1.4,2,6,2.2,9.2
			c1.8,42.4-8.1,81.7-30.4,117.9c-4.4,7.1-8.7,14.2-13.1,21.2c-1.1,1.7-1.8,4.5-4.5,3.9c-3.4-0.7-2.4-3.9-2.4-6.1
			C165.6,167.4,165.7,160.3,165.7,153.2z"/>
		<path id="XMLID_88_" fill="#8561A9" d="M820.6,111c7.1,14.1,11.6,28.9,14.7,44.2c7.7,38.9-0.9,75.8-14.9,111.8
			c-0.7,1.9-1.1,4.6-3.8,4.6c-2.4,0-2.4-2.3-3-4c-15.4-50.6-17.8-100.9,2.5-150.9c0.6-1.4,1.3-2.8,2.1-4.1
			C818.5,112.2,819.2,112,820.6,111z"/>
		<path id="XMLID_85_" fill="#8561A9" d="M749.4,696.6c-23,9.4-45.5,14.4-69.2,14.3c-31.2,0-59.9-9.8-88-22.1
			c-1.9-0.8-4.5-1.2-4-4.2c0.3-1.8,2.3-1.9,3.6-2.2c52.6-13.2,104.2-13.2,154.1,11.1C746.7,693.9,747.3,694.7,749.4,696.6z"/>
		<path id="XMLID_84_" fill="#8561A9" d="M148.1,193.4c-0.6,24.5-5.6,49.1-12.4,73.5c-0.5,2-0.3,4.8-3.2,4.7c-2.6-0.1-3-2.8-3.8-4.7
			c-19.6-48.8-25.3-98-3.9-147.9c1.1-2.7,1.2-7.2,4.7-7c3.2,0.2,3.3,4.7,4.3,7.5C142.8,143,147.7,167.3,148.1,193.4z"/>
		<path id="XMLID_83_" fill="#8561A9" d="M750.2,477.2c-1.1-34.1,8.2-65.4,23.2-95.2c1.1-2.2,1.5-6.3,5.1-5.6c3,0.6,2.7,4.4,3.5,7
			c13.2,43.9,8.3,86.4-10.8,127.6c-2.8,6.1-5.8,12.2-8.9,18.3c-1.1,2-1.5,5.4-4.6,5.1c-3.1-0.4-2.8-3.6-3.1-5.9
			C752.5,511.2,749.8,494.1,750.2,477.2z"/>
		<path id="XMLID_82_" fill="#8561A9" d="M437.5,750.2c10.4-0.1,19.5,8.7,19.8,19.2c0.3,10.7-9.1,20.1-19.9,19.9
			c-10.6-0.2-19.4-9-19.3-19.6C418.1,759.4,427.1,750.3,437.5,750.2z"/>
		<path id="XMLID_81_" fill="#8561A9" d="M531.1,770.2c-0.3,10.5-9.3,19.2-19.8,19.1c-10.6-0.1-19.4-9-19.4-19.5
			c0-10.7,9.6-20,20.3-19.6C522.5,750.6,531.4,760,531.1,770.2z"/>
	</g>
	<g id="Isas8B.tif_1_">
		<g id="XMLID_69_">
			<path id="XMLID_70_" fill="#8561A9" d="M474.6,225.6c42.9,0,85.7,0.1,128.6-0.1c4.7,0,7.5,1.3,10,5.4
				c15.3,24.8,30.9,49.4,46.6,73.8c2.6,4,2.4,6.5-0.8,10.1C599,382.6,539,450.6,479.1,518.6c-3.2,3.7-5.1,4.6-8.9,0.3
				c-60-68.2-120.1-136.4-180.4-204.4c-3.3-3.7-3-6-0.5-9.9c15.7-24.5,31.3-49.1,46.6-73.9c2.5-4.1,5.4-5.3,10-5.3
				C388.9,225.7,431.8,225.6,474.6,225.6z M542.4,315.9c-1.6-0.3-2.3-0.6-2.9-0.6c-42.6,0-85.2,0-127.8-0.1c-7.4,0-3.4,3.9-2.4,6.4
				c20.9,51.6,41.8,103.2,62.9,154.7c0.7,1.6,0.5,4,3.3,4.5C497.7,425.9,520,371,542.4,315.9z M640.3,315.2c-26.1,0-50.1,0.2-74-0.1
				c-5.3-0.1-7.6,1.7-9.6,6.5c-16,39.9-32.3,79.6-48.4,119.4c-5.1,12.5-10.1,25-15.1,37.6c0.4,0.2,0.8,0.4,1.1,0.6
				C542.5,425,590.8,370.8,640.3,315.2z M454.4,478.6c1.3-2.1,0.3-3.3-0.2-4.7c-20.9-51.3-41.8-102.7-62.5-154.1
				c-1.6-4-4-4.7-7.8-4.7c-23,0.1-46,0.1-69.1,0.1c-1.5,0-3.5-1-4.6,1.6C358.3,370.7,406.3,424.6,454.4,478.6z M540.4,300.4
				c-0.3-0.9-0.3-1.4-0.6-1.7c-20.6-18.8-41.2-37.6-61.7-56.5c-3.5-3.2-5.3-1.2-7.8,1c-19.3,17.6-38.8,35.2-58.1,52.8
				c-1.3,1.1-3.6,1.8-3,4.3C452.9,300.4,496.6,300.4,540.4,300.4z M640.1,300.6c-13.3-21-25.8-40.6-38.8-61.2
				c-13.1,20.7-25.7,40.5-38.8,61.2C588.8,300.6,613.6,300.6,640.1,300.6z M386.7,300.5c-13.3-20.9-25.8-40.6-38.8-61.2
				c-13.2,20.9-25.7,40.7-38.7,61.2C335.6,300.5,360.5,300.5,386.7,300.5z M500.3,239.1c-0.3,0.5-0.6,1-0.8,1.5
				c16.7,15.3,33.4,30.5,50.1,45.8c2.7,2.5,3.6,0.3,4.9-1.6c8.7-13.8,17.5-27.7,26.3-41.4c1.8-2.8,2.1-4.4-2.1-4.4
				C552.5,239.1,526.4,239.1,500.3,239.1z M367.5,239.5c1,2,1.6,3.6,2.5,4.9c8.2,13,16.8,25.9,24.6,39.1c2.9,4.9,4.8,3.9,8.1,0.8
				c14-13,28.2-25.8,42.3-38.7c1.8-1.7,4.6-2.7,5.2-6.2C422.7,239.5,395.5,239.5,367.5,239.5z"/>
		</g>
	</g>
</g>
</svg>
