<?xml version="1.0" encoding="utf-8"?>
<!-- Generator: Adobe Illustrator 19.0.0, SVG Export Plug-In . SVG Version: 6.00 Build 0)  -->
<!DOCTYPE svg PUBLIC "-//W3C//DTD SVG 1.1//EN" "http://www.w3.org/Graphics/SVG/1.1/DTD/svg11.dtd">
<svg version="1.1" id="Objects" xmlns="http://www.w3.org/2000/svg" xmlns:xlink="http://www.w3.org/1999/xlink" x="0px" y="0px"
	 viewBox="0 0 1109.6 800" enable-background="new 0 0 1109.6 800" xml:space="preserve">
<g id="XMLID_2_">
	<path id="XMLID_5_" fill="#63A842" d="M1089.5,460c-5-61.4-60.7-105.6-121.3-94.7c-12.7,2.3-17.5-1.6-22.4-11.4
		c-11.5-23-29.7-39.4-53.7-48.6c-8-3.1-10.8-7.5-11.8-16.1c-8.1-70.1-57.9-125-126.4-139.3c-9.8-2-14.9-5.7-19.2-14.8
		C692.6,45.3,594.9-5.2,497.6,13.4c-79.3,15.1-134.3,61.3-165.3,135.7c-3.4,8.1-7.2,11.6-16.2,11c-14.9-1.1-29.9,0.6-44.5,4
		c-87.4,20.2-145.7,94.3-145.3,184.6c0,8.4,0.6,14.6-11.4,15.9C59,370.7,18.1,418.4,21,472.8c3,56.5,48.8,99.6,106.1,99.7
		c69.1,0.1,138.2,0,207.3,0c45.3,0,90.5,0,135.8-0.1c9.2,0,15.7-3.8,15.4-13.8c-0.3-9.3-6.5-12.7-15.3-12.3c-4.2,0.2-8.4,0-12.6,0
		c-110.2,0-220.3,0.1-330.5-0.1c-35,0-64.9-20.8-75.4-52c-15.7-46.5,12.8-98.2,68.8-104.2c32.5-3.4,32.4-4.3,32-35.8
		c-1-101.6,71.1-172.3,172.7-167.7c16.6,0.8,23.7-5.3,28.3-19.6c10.8-33.1,30.3-60.4,56.3-83.7C500.9,1.6,651.7,29,706.4,138.4
		c10.8,21.7,20.8,40.2,48.6,38.6c0.9,0,1.8,0.5,2.7,0.8c59.2,19.2,91.8,60,96.8,121.8c1.2,14.7,6.2,22.4,20.5,26.9
		c24.3,7.6,41.4,24.2,52,47.6c10.8,23.8,11.2,23.6,37,18.7c45.7-8.7,82.8,11.1,96.3,51.5c16.9,50.5-21.9,101.7-77.5,101.8
		c-114.4,0.2-228.7,0.1-343.1,0.1c-4.2,0-8.5-0.3-12.6,0.4c-6.2,1.1-9.6,5.2-9.9,11.7c-0.2,6.4,2.5,11.3,8.6,12.8
		c5.3,1.3,11.1,1.2,16.7,1.2c57.4,0.1,114.8,0,172.2,0c0,0,0,0,0,0c56,0,112.1,0,168.1,0c0.9,0,1.9,0,2.8,0
		C1047.5,571.7,1094.5,520.8,1089.5,460z"/>
	<path id="XMLID_8_" fill="#63A842" d="M572.7,316.2c17,17.7,34.1,35.4,51,53.2c6.5,6.8,13.5,8.9,20.5,1.6
		c6.4-6.7,4.5-13.6-1.6-19.7c-25.4-25.4-50.9-50.7-76.3-76c-7.4-7.4-14.9-6.9-22,0.3c-24.7,24.6-49.4,49.3-74.1,74.1
		c-6.6,6.6-10.2,14.4-2.4,22c8,7.8,15,3.4,21.4-3.7c15.9-17.4,32-34.6,48.1-51.9c1.5,1.2,2.9,2.5,4.4,3.7c0.4,6.9,1.3,13.9,1.2,20.8
		c-0.2,142.2-0.5,284.5-0.7,426.7c0,4.2-0.3,8.5,0.2,12.6c1.1,7.7,4.8,13.2,13.6,13c8.1-0.2,11.2-5.7,12.3-12.7
		c0.4-2.7,0.3-5.6,0.2-8.4c-0.2-135.8-0.5-271.5-0.7-407.3c0-15.5,0-31,0-46.5C569.5,317.5,571.1,316.8,572.7,316.2z"/>
</g>
</svg>
