<?xml version="1.0" encoding="utf-8"?>
<!-- Generator: Adobe Illustrator 19.0.0, SVG Export Plug-In . SVG Version: 6.00 Build 0)  -->
<!DOCTYPE svg PUBLIC "-//W3C//DTD SVG 1.1//EN" "http://www.w3.org/Graphics/SVG/1.1/DTD/svg11.dtd">
<svg version="1.1" id="Objects" xmlns="http://www.w3.org/2000/svg" xmlns:xlink="http://www.w3.org/1999/xlink" x="0px" y="0px"
	 viewBox="0 0 800 800" enable-background="new 0 0 800 800" xml:space="preserve">
<g id="XMLID_1_">
	<path id="XMLID_3_" fill="#63A842" d="M698.1,631.8c-3.2-14.8-7.5-29.3-12.8-43.5c-9.4-25.3-22.1-48.8-37.9-70.7
		c-17.8-24.8-39-46.3-63.1-64.8c-17.3-13.3-36-24.6-55.8-33.7c-23.2-10.8-47.4-18.7-72.7-23c-15.3-2.6-30.6-4.8-46.1-5
		c-16.6-0.3-33.1,0.2-49.6,2.5c-16.3,2.2-32.3,5.6-48,10.2c-11.6,3.4-22.7,7.9-33.9,12.3c-10.3,4.1-19.9,9.7-29.3,15.3
		c-5.3,3.1-10.6,6.9-15.9,9.9c-6.1,3.5-11.1,8.1-17,11.8c-7.5,4.7-13.8,11.5-20.8,17c-2.7,2.1-3.7,5.6-6.4,7.5
		c-4.8,3.3-9,7.4-12.6,11.8c-4.7,5.6-9.5,11.3-14.2,16.8c-11.7,13.5-21.2,28.3-29.6,43.9c-15,27.7-25.5,57-31.4,88.1
		c-4.1,21.6-5.6,43.2-5.3,65c0,2.6,0.7,3.5,3.4,3.4c5.7-0.2,11.4-0.1,17.1-0.1c40.1,0,80.2,0.1,120.3,0.1l12.7,0
		c28.7-0.1,57.5-0.1,86.2-0.1c3,0,3.6-1.2,3.5-3.8c-0.2-4.5-0.3-8.9,0-13.4c0.3-4.1-1.2-5.1-5.3-5.1c-35,0.2-70.1,0.1-105.1,0.1
		c0,0,0-0.1,0-0.1c-0.8,0-1.5,0-2.3,0c-34.6,0-69.1,0-103.7,0.2c-3.7,0-4.7-1-4.5-4.6c0.5-7.5,1.6-14.9,2.5-22.4
		c3-25.6,10.2-50,20.3-73.6c11.6-26.9,27.1-51.5,46.5-73.6c23.1-26.4,50.2-48,81.3-64.4c21.1-11.1,43.1-19.4,66.2-25
		c16.5-4,33.2-6.5,50-7.4c27.4-1.5,54.5,1.1,81.3,7.6c27.8,6.7,53.9,17.4,78.5,32c29.3,17.4,54.6,39.5,75.8,66
		c16.5,20.6,30,43,40.1,67.4c7.4,17.9,13.1,36.2,16.8,55.1c2.5,12.7,3.9,25.4,5,38.3c0.3,3.3-0.5,4.5-4.1,4.4
		c-11.4-0.2-22.7,0-34.1-0.2c-2.8,0-3.9,0.7-3.8,3.5c0.2,5.2,0.1,10.4,0,15.7c-0.1,2.5,1,3.1,3.3,3.1c19.4-0.1,38.7-0.1,58.1,0
		c2.1,0,2.9-0.6,3-2.8C705.1,679.5,703.1,655.5,698.1,631.8z"/>
	<path id="XMLID_12_" fill="#63A842" d="M400,359c96.3,0,174.7-78.4,174.7-174.7S496.3,9.6,400,9.6S225.3,88,225.3,184.3
		S303.7,359,400,359z M400,32.6c83.6,0,151.7,68,151.7,151.7S483.6,336,400,336s-151.7-68-151.7-151.7S316.4,32.6,400,32.6z"/>
	<path id="XMLID_13_" fill="#63A842" d="M574.8,682.9h-67.6c-3.9,0-7.1-3.2-7.1-7.1v-70.9c0-3.9-3.2-7.1-7.1-7.1h-9
		c-3.9,0-7.1,3.2-7.1,7.1v70.9c0,3.9-3.2,7.1-7.1,7.1h-67.6c-3.9,0-7.1,3.2-7.1,7.1v7.6c0,3.9,3.2,7.1,7.1,7.1h67.6
		c3.9,0,7.1,3.2,7.1,7.1v71.6c0,3.9,3.2,7.1,7.1,7.1h9c3.9,0,7.1-3.2,7.1-7.1v-71.6c0-3.9,3.2-7.1,7.1-7.1h67.6
		c3.9,0,7.1-3.2,7.1-7.1V690C581.9,686.1,578.7,682.9,574.8,682.9z"/>
</g>
</svg>
